<svg width="89" height="89" viewBox="0 0 89 89" fill="none" xmlns="http://www.w3.org/2000/svg">
<path d="M27.039 23.1556C24.6766 21.9823 22.3421 19.0029 21.6207 17.9877C22.8984 18.0886 25.3528 19.2723 26.7226 19.2723C31.3777 19.2723 34.7917 14.4625 43.1146 17.4367L40.116 4.56994C39.9896 4.01112 40.0888 3.42499 40.3919 2.93884C40.6951 2.45269 41.1779 2.10578 41.7353 1.97346C42.2928 1.84114 42.8799 1.93408 43.3692 2.23211C43.8586 2.53015 44.2105 3.00919 44.3488 3.56522L47.1595 14.8762L47.1648 14.8745C52.8455 12.9867 56.9426 16.8335 61.0206 17.9877C65.5662 19.2723 69.9449 17.4784 70.0458 17.4384C69.9728 17.541 67.2176 21.3548 63.6332 23.0931C63.343 23.2339 63.0544 23.3631 62.7676 23.4807C60.1137 24.5677 57.2187 24.9306 54.3786 24.5324C56.618 25.8224 58.3871 27.7934 59.4286 30.1586C60.47 32.5238 60.7293 35.1597 60.1688 37.6825C59.1415 36.7629 57.5406 34.6196 56.0891 33.9712C54.29 33.1699 49.6662 32.631 46.3738 27.6335C45.1918 27.6717 44.7051 33.5384 39.5615 34.6735C38.2404 34.9655 33.8547 34.7135 32.9752 35.4696C33.5436 29.5647 38.6524 28.2019 36.8359 23.6458C35.8729 23.9796 31.5168 25.372 27.0424 23.1574C27.0407 23.1574 27.0407 23.1556 27.039 23.1556Z" fill="#97C447"/>
<path d="M58.2041 28.0108C57.722 27.9792 57.3224 27.9314 57.0243 27.8892C57.7393 28.306 58.4108 28.7934 59.0287 29.3441C58.7832 28.8822 58.5077 28.4368 58.2041 28.0108Z" fill="#7C993C"/>
<path d="M29.3682 22.6291C34.0234 22.6291 37.4373 17.8193 45.7602 20.7935L42.7617 7.92656C42.6909 7.61715 42.6888 7.29597 42.7556 6.98566C42.8224 6.67536 42.9564 6.38348 43.1483 6.13059C43.3401 5.8777 43.585 5.66996 43.8659 5.52201C44.1467 5.37406 44.4565 5.2895 44.7736 5.27429L44.3488 3.56522C44.2106 3.00919 43.8586 2.53014 43.3692 2.23211C42.8799 1.93408 42.2928 1.84114 41.7353 1.97346C41.1779 2.10578 40.6951 2.45269 40.3919 2.93884C40.0888 3.42499 39.9896 4.01112 40.116 4.56994L43.1146 17.4367C34.7917 14.4625 31.3777 19.2723 26.7226 19.2723C25.3528 19.2723 22.8984 18.0886 21.6207 17.9877C22.5051 19.2149 23.5046 20.3548 24.6055 21.3922C25.9416 21.6336 28.1108 22.6291 29.3682 22.6291Z" fill="#7C993C"/>
<path d="M62.8041 23.5693C74.282 29.37 82.0417 40.4567 82.0417 53.181C82.0417 71.9075 65.2342 87.0879 44.5 87.0879C23.7658 87.0879 6.95834 71.9075 6.95834 53.181C6.95834 40.1456 15.1005 28.8311 27.039 23.1556C27.0407 23.1556 27.0407 23.1574 27.0424 23.1574C31.5168 25.3719 35.8729 23.9796 36.8359 23.6458C38.6524 28.2019 33.5436 29.5647 32.9752 35.4696C33.8548 34.7135 38.2405 34.9655 39.5616 34.6735C44.7051 33.5384 45.1918 27.6717 46.3739 27.6335C49.6662 32.631 54.29 33.1699 56.0891 33.9712C57.5406 34.6196 59.1416 36.7629 60.1689 37.6825C60.7294 35.1596 60.47 32.5238 59.4286 30.1586C58.3872 27.7934 56.618 25.8224 54.3787 24.5324C57.2188 24.9306 60.1137 24.5677 62.7676 23.4807L62.8041 23.5693Z" fill="#F43B3B"/>
<path d="M58.7365 74.594C38.0023 74.594 21.1949 59.4136 21.1949 40.6871C21.205 34.5657 23.0093 28.5815 26.3847 23.4748C14.8044 29.2481 6.95834 40.3851 6.95834 53.181C6.95834 71.9075 23.7658 87.0879 44.5 87.0879C58.2778 87.0879 70.3192 80.3837 76.8494 70.3913C71.2187 73.1761 65.0182 74.6148 58.7365 74.594Z" fill="#771337"/>
<g opacity="0.8">
<path opacity="0.8" d="M24.4267 75.5214C24.2798 75.5216 24.1345 75.4908 24.0004 75.4309C23.8663 75.3709 23.7464 75.2833 23.6486 75.1737C22.2981 73.6644 21.0798 72.0418 20.0071 70.3239C19.8608 70.0891 19.8138 69.8058 19.8764 69.5364C19.939 69.2669 20.1061 69.0334 20.3409 68.8871C20.5757 68.7409 20.859 68.6939 21.1284 68.7565C21.3979 68.8191 21.6314 68.9862 21.7777 69.221C22.787 70.8371 23.9333 72.3634 25.204 73.7831C25.3382 73.9332 25.4262 74.1189 25.4572 74.3178C25.4882 74.5167 25.4609 74.7204 25.3787 74.9042C25.2965 75.088 25.1629 75.2441 24.994 75.3536C24.825 75.4631 24.628 75.5214 24.4267 75.5214Z" fill="#E9E9E9"/>
</g>
<g opacity="0.8">
<path opacity="0.8" d="M17.7859 64.3063C17.5688 64.3063 17.3571 64.2385 17.1804 64.1124C17.0036 63.9863 16.8706 63.8081 16.8 63.6028C14.4445 56.7647 14.4748 49.3304 16.886 42.5118C16.9782 42.2509 17.1703 42.0374 17.4199 41.9181C17.6695 41.7989 17.9563 41.7837 18.2172 41.8759C18.478 41.9681 18.6916 42.1601 18.8108 42.4098C18.9301 42.6594 18.9452 42.9462 18.853 43.2071C16.5986 49.5814 16.5701 56.5314 18.7722 62.924C18.8262 63.0812 18.8419 63.2489 18.818 63.4133C18.7941 63.5777 18.7313 63.734 18.6349 63.8693C18.5384 64.0045 18.411 64.1148 18.2634 64.1909C18.1157 64.2671 17.952 64.3069 17.7859 64.307V64.3063Z" fill="#E9E9E9"/>
</g>
</svg>
